<svg xmlns="http://www.w3.org/2000/svg" width="1380" height="976" style="background:#f8fafc;font-family:monospace">
<defs>
  <marker id="arrow" markerWidth="8" markerHeight="8" refX="6" refY="3" orient="auto">
    <path d="M0,0 L0,6 L8,3 z" fill="#94a3b8"/>
  </marker>
</defs>

<!-- Title -->
<text x="20" y="28" font-family="sans-serif" font-size="18" font-weight="bold" fill="#1e293b">1StopSellingBot — Entity Relationship Diagram</text>

<!-- Arrows -->
<path d="M 310 115 C 325.0 115, 325.0 93, 340 93" stroke="#94a3b8" stroke-width="1.5" fill="none" marker-end="url(#arrow)" opacity="0.7"/>
<path d="M 805 495 C 805.0 495, 805.0 93, 805 93" stroke="#94a3b8" stroke-width="1.5" fill="none" marker-end="url(#arrow)" opacity="0.7"/>
<path d="M 660 517 C 645.0 517, 645.0 93, 630 93" stroke="#94a3b8" stroke-width="1.5" fill="none" marker-end="url(#arrow)" opacity="0.7"/>
<path d="M 485 515 C 485.0 515, 485.0 93, 485 93" stroke="#94a3b8" stroke-width="1.5" fill="none" marker-end="url(#arrow)" opacity="0.7"/>
<path d="M 340 815 C 325.0 815, 325.0 413, 310 413" stroke="#94a3b8" stroke-width="1.5" fill="none" marker-end="url(#arrow)" opacity="0.7"/>
<path d="M 1205 547 C 1205.0 547, 1205.0 93, 1205 93" stroke="#94a3b8" stroke-width="1.5" fill="none" marker-end="url(#arrow)" opacity="0.7"/>
<!-- Tables -->
<rect x="24" y="54" width="290" height="164" rx="6" fill="#00000022"/>
<rect x="20" y="50" width="290" height="164" rx="6" fill="#eff6ff" stroke="#3b82f6" stroke-width="1.5"/>
<rect x="20" y="50" width="290" height="32" rx="6" fill="#1d4ed8"/>
<rect x="20" y="76" width="290" height="6" fill="#1d4ed8"/>
<text x="165" y="73" text-anchor="middle" font-family="monospace" font-size="13" font-weight="bold" fill="#ffffff">inventory</text>
<line x1="20" y1="82" x2="310" y2="82" stroke="#3b82f6" stroke-width="1"/>
<rect x="21" y="82" width="288" height="22" fill="#00000008"/>
<rect x="274" y="85" width="24" height="15" rx="3" fill="#f59e0b" opacity="0.85"/>
<text x="286" y="96" text-anchor="middle" font-family="monospace" font-size="9" font-weight="bold" fill="white">PK</text>
<text x="28" y="97" font-family="monospace" font-size="11" font-weight="bold" fill="#1f2937">id</text>
<text x="148" y="97" font-family="monospace" font-size="10" fill="#6b7280">uuid</text>
<line x1="24" y1="104" x2="306" y2="104" stroke="#3b82f6" stroke-width="0.4" opacity="0.4"/>
<rect x="274" y="107" width="24" height="15" rx="3" fill="#ef4444" opacity="0.85"/>
<text x="286" y="118" text-anchor="middle" font-family="monospace" font-size="9" font-weight="bold" fill="white">FK</text>
<text x="28" y="119" font-family="monospace" font-size="11" font-weight="bold" fill="#1f2937">product_id</text>
<text x="148" y="119" font-family="monospace" font-size="10" fill="#6b7280">uuid</text>
<rect x="21" y="126" width="288" height="22" fill="#00000008"/>
<line x1="24" y1="126" x2="306" y2="126" stroke="#3b82f6" stroke-width="0.4" opacity="0.4"/>
<rect x="246" y="129" width="24" height="15" rx="3" fill="#ef4444" opacity="0.85"/>
<text x="258" y="140" text-anchor="middle" font-family="monospace" font-size="9" font-weight="bold" fill="white">FK</text>
<rect x="274" y="129" width="24" height="15" rx="3" fill="#ef4444" opacity="0.85"/>
<text x="286" y="140" text-anchor="middle" font-family="monospace" font-size="9" font-weight="bold" fill="white">UK</text>
<text x="28" y="141" font-family="monospace" font-size="11" font-weight="bold" fill="#1f2937">sku</text>
<text x="148" y="141" font-family="monospace" font-size="10" fill="#6b7280">text</text>
<line x1="24" y1="148" x2="306" y2="148" stroke="#3b82f6" stroke-width="0.4" opacity="0.4"/>
<text x="28" y="163" font-family="monospace" font-size="11" font-weight="normal" fill="#1f2937">quantity</text>
<text x="148" y="163" font-family="monospace" font-size="10" fill="#6b7280">integer</text>
<rect x="21" y="170" width="288" height="22" fill="#00000008"/>
<line x1="24" y1="170" x2="306" y2="170" stroke="#3b82f6" stroke-width="0.4" opacity="0.4"/>
<text x="28" y="185" font-family="monospace" font-size="11" font-weight="normal" fill="#1f2937">low_stock_threshold</text>
<text x="148" y="185" font-family="monospace" font-size="10" fill="#6b7280">integer</text>
<line x1="24" y1="192" x2="306" y2="192" stroke="#3b82f6" stroke-width="0.4" opacity="0.4"/>
<text x="28" y="207" font-family="monospace" font-size="11" font-weight="normal" fill="#1f2937">updated_at</text>
<text x="148" y="207" font-family="monospace" font-size="10" fill="#6b7280">timestamptz</text>
<rect x="344" y="54" width="290" height="274" rx="6" fill="#00000022"/>
<rect x="340" y="50" width="290" height="274" rx="6" fill="#eff6ff" stroke="#3b82f6" stroke-width="1.5"/>
<rect x="340" y="50" width="290" height="32" rx="6" fill="#1d4ed8"/>
<rect x="340" y="76" width="290" height="6" fill="#1d4ed8"/>
<text x="485" y="73" text-anchor="middle" font-family="monospace" font-size="13" font-weight="bold" fill="#ffffff">products</text>
<line x1="340" y1="82" x2="630" y2="82" stroke="#3b82f6" stroke-width="1"/>
<rect x="341" y="82" width="288" height="22" fill="#00000008"/>
<rect x="594" y="85" width="24" height="15" rx="3" fill="#f59e0b" opacity="0.85"/>
<text x="606" y="96" text-anchor="middle" font-family="monospace" font-size="9" font-weight="bold" fill="white">PK</text>
<text x="348" y="97" font-family="monospace" font-size="11" font-weight="bold" fill="#1f2937">id</text>
<text x="468" y="97" font-family="monospace" font-size="10" fill="#6b7280">uuid</text>
<line x1="344" y1="104" x2="626" y2="104" stroke="#3b82f6" stroke-width="0.4" opacity="0.4"/>
<text x="348" y="119" font-family="monospace" font-size="11" font-weight="normal" fill="#1f2937">name</text>
<text x="468" y="119" font-family="monospace" font-size="10" fill="#6b7280">text</text>
<rect x="341" y="126" width="288" height="22" fill="#00000008"/>
<line x1="344" y1="126" x2="626" y2="126" stroke="#3b82f6" stroke-width="0.4" opacity="0.4"/>
<rect x="594" y="129" width="24" height="15" rx="3" fill="#8b5cf6" opacity="0.85"/>
<text x="606" y="140" text-anchor="middle" font-family="monospace" font-size="9" font-weight="bold" fill="white">UK</text>
<text x="348" y="141" font-family="monospace" font-size="11" font-weight="normal" fill="#1f2937">sku</text>
<text x="468" y="141" font-family="monospace" font-size="10" fill="#6b7280">text</text>
<line x1="344" y1="148" x2="626" y2="148" stroke="#3b82f6" stroke-width="0.4" opacity="0.4"/>
<text x="348" y="163" font-family="monospace" font-size="11" font-weight="normal" fill="#1f2937">description</text>
<text x="468" y="163" font-family="monospace" font-size="10" fill="#6b7280">text</text>
<rect x="341" y="170" width="288" height="22" fill="#00000008"/>
<line x1="344" y1="170" x2="626" y2="170" stroke="#3b82f6" stroke-width="0.4" opacity="0.4"/>
<text x="348" y="185" font-family="monospace" font-size="11" font-weight="normal" fill="#1f2937">category</text>
<text x="468" y="185" font-family="monospace" font-size="10" fill="#6b7280">text</text>
<line x1="344" y1="192" x2="626" y2="192" stroke="#3b82f6" stroke-width="0.4" opacity="0.4"/>
<text x="348" y="207" font-family="monospace" font-size="11" font-weight="normal" fill="#1f2937">attributes</text>
<text x="468" y="207" font-family="monospace" font-size="10" fill="#6b7280">jsonb</text>
<rect x="341" y="214" width="288" height="22" fill="#00000008"/>
<line x1="344" y1="214" x2="626" y2="214" stroke="#3b82f6" stroke-width="0.4" opacity="0.4"/>
<text x="348" y="229" font-family="monospace" font-size="11" font-weight="normal" fill="#1f2937">price</text>
<text x="468" y="229" font-family="monospace" font-size="10" fill="#6b7280">numeric</text>
<line x1="344" y1="236" x2="626" y2="236" stroke="#3b82f6" stroke-width="0.4" opacity="0.4"/>
<text x="348" y="251" font-family="monospace" font-size="11" font-weight="normal" fill="#1f2937">image_url</text>
<text x="468" y="251" font-family="monospace" font-size="10" fill="#6b7280">text</text>
<rect x="341" y="258" width="288" height="22" fill="#00000008"/>
<line x1="344" y1="258" x2="626" y2="258" stroke="#3b82f6" stroke-width="0.4" opacity="0.4"/>
<text x="348" y="273" font-family="monospace" font-size="11" font-weight="normal" fill="#1f2937">is_active</text>
<text x="468" y="273" font-family="monospace" font-size="10" fill="#6b7280">boolean</text>
<line x1="344" y1="280" x2="626" y2="280" stroke="#3b82f6" stroke-width="0.4" opacity="0.4"/>
<text x="348" y="295" font-family="monospace" font-size="11" font-weight="normal" fill="#1f2937">created_at</text>
<text x="468" y="295" font-family="monospace" font-size="10" fill="#6b7280">timestamptz</text>
<rect x="341" y="302" width="288" height="22" fill="#00000008"/>
<line x1="344" y1="302" x2="626" y2="302" stroke="#3b82f6" stroke-width="0.4" opacity="0.4"/>
<text x="348" y="317" font-family="monospace" font-size="11" font-weight="normal" fill="#1f2937">updated_at</text>
<text x="468" y="317" font-family="monospace" font-size="10" fill="#6b7280">timestamptz</text>
<rect x="664" y="54" width="290" height="274" rx="6" fill="#00000022"/>
<rect x="660" y="50" width="290" height="274" rx="6" fill="#eff6ff" stroke="#3b82f6" stroke-width="1.5"/>
<rect x="660" y="50" width="290" height="32" rx="6" fill="#1d4ed8"/>
<rect x="660" y="76" width="290" height="6" fill="#1d4ed8"/>
<text x="805" y="73" text-anchor="middle" font-family="monospace" font-size="13" font-weight="bold" fill="#ffffff">orders</text>
<line x1="660" y1="82" x2="950" y2="82" stroke="#3b82f6" stroke-width="1"/>
<rect x="661" y="82" width="288" height="22" fill="#00000008"/>
<rect x="914" y="85" width="24" height="15" rx="3" fill="#f59e0b" opacity="0.85"/>
<text x="926" y="96" text-anchor="middle" font-family="monospace" font-size="9" font-weight="bold" fill="white">PK</text>
<text x="668" y="97" font-family="monospace" font-size="11" font-weight="bold" fill="#1f2937">id</text>
<text x="788" y="97" font-family="monospace" font-size="10" fill="#6b7280">uuid</text>
<line x1="664" y1="104" x2="946" y2="104" stroke="#3b82f6" stroke-width="0.4" opacity="0.4"/>
<rect x="914" y="107" width="24" height="15" rx="3" fill="#8b5cf6" opacity="0.85"/>
<text x="926" y="118" text-anchor="middle" font-family="monospace" font-size="9" font-weight="bold" fill="white">UK</text>
<text x="668" y="119" font-family="monospace" font-size="11" font-weight="normal" fill="#1f2937">order_number</text>
<text x="788" y="119" font-family="monospace" font-size="10" fill="#6b7280">text</text>
<rect x="661" y="126" width="288" height="22" fill="#00000008"/>
<line x1="664" y1="126" x2="946" y2="126" stroke="#3b82f6" stroke-width="0.4" opacity="0.4"/>
<text x="668" y="141" font-family="monospace" font-size="11" font-weight="normal" fill="#1f2937">customer_name</text>
<text x="788" y="141" font-family="monospace" font-size="10" fill="#6b7280">text</text>
<line x1="664" y1="148" x2="946" y2="148" stroke="#3b82f6" stroke-width="0.4" opacity="0.4"/>
<text x="668" y="163" font-family="monospace" font-size="11" font-weight="normal" fill="#1f2937">customer_phone</text>
<text x="788" y="163" font-family="monospace" font-size="10" fill="#6b7280">text</text>
<rect x="661" y="170" width="288" height="22" fill="#00000008"/>
<line x1="664" y1="170" x2="946" y2="170" stroke="#3b82f6" stroke-width="0.4" opacity="0.4"/>
<text x="668" y="185" font-family="monospace" font-size="11" font-weight="normal" fill="#1f2937">customer_email</text>
<text x="788" y="185" font-family="monospace" font-size="10" fill="#6b7280">text</text>
<line x1="664" y1="192" x2="946" y2="192" stroke="#3b82f6" stroke-width="0.4" opacity="0.4"/>
<text x="668" y="207" font-family="monospace" font-size="11" font-weight="normal" fill="#1f2937">customer_address</text>
<text x="788" y="207" font-family="monospace" font-size="10" fill="#6b7280">text</text>
<rect x="661" y="214" width="288" height="22" fill="#00000008"/>
<line x1="664" y1="214" x2="946" y2="214" stroke="#3b82f6" stroke-width="0.4" opacity="0.4"/>
<text x="668" y="229" font-family="monospace" font-size="11" font-weight="normal" fill="#1f2937">status</text>
<text x="788" y="229" font-family="monospace" font-size="10" fill="#6b7280">text</text>
<line x1="664" y1="236" x2="946" y2="236" stroke="#3b82f6" stroke-width="0.4" opacity="0.4"/>
<text x="668" y="251" font-family="monospace" font-size="11" font-weight="normal" fill="#1f2937">total_amount</text>
<text x="788" y="251" font-family="monospace" font-size="10" fill="#6b7280">numeric</text>
<rect x="661" y="258" width="288" height="22" fill="#00000008"/>
<line x1="664" y1="258" x2="946" y2="258" stroke="#3b82f6" stroke-width="0.4" opacity="0.4"/>
<text x="668" y="273" font-family="monospace" font-size="11" font-weight="normal" fill="#1f2937">notes</text>
<text x="788" y="273" font-family="monospace" font-size="10" fill="#6b7280">text</text>
<line x1="664" y1="280" x2="946" y2="280" stroke="#3b82f6" stroke-width="0.4" opacity="0.4"/>
<text x="668" y="295" font-family="monospace" font-size="11" font-weight="normal" fill="#1f2937">created_at</text>
<text x="788" y="295" font-family="monospace" font-size="10" fill="#6b7280">timestamptz</text>
<rect x="661" y="302" width="288" height="22" fill="#00000008"/>
<line x1="664" y1="302" x2="946" y2="302" stroke="#3b82f6" stroke-width="0.4" opacity="0.4"/>
<text x="668" y="317" font-family="monospace" font-size="11" font-weight="normal" fill="#1f2937">updated_at</text>
<text x="788" y="317" font-family="monospace" font-size="10" fill="#6b7280">timestamptz</text>
<rect x="1064" y="54" width="290" height="296" rx="6" fill="#00000022"/>
<rect x="1060" y="50" width="290" height="296" rx="6" fill="#fffbeb" stroke="#f59e0b" stroke-width="1.5"/>
<rect x="1060" y="50" width="290" height="32" rx="6" fill="#92400e"/>
<rect x="1060" y="76" width="290" height="6" fill="#92400e"/>
<text x="1205" y="73" text-anchor="middle" font-family="monospace" font-size="13" font-weight="bold" fill="#ffffff">staff</text>
<line x1="1060" y1="82" x2="1350" y2="82" stroke="#f59e0b" stroke-width="1"/>
<rect x="1061" y="82" width="288" height="22" fill="#00000008"/>
<rect x="1314" y="85" width="24" height="15" rx="3" fill="#f59e0b" opacity="0.85"/>
<text x="1326" y="96" text-anchor="middle" font-family="monospace" font-size="9" font-weight="bold" fill="white">PK</text>
<text x="1068" y="97" font-family="monospace" font-size="11" font-weight="bold" fill="#1f2937">id</text>
<text x="1188" y="97" font-family="monospace" font-size="10" fill="#6b7280">uuid</text>
<line x1="1064" y1="104" x2="1346" y2="104" stroke="#f59e0b" stroke-width="0.4" opacity="0.4"/>
<text x="1068" y="119" font-family="monospace" font-size="11" font-weight="normal" fill="#1f2937">name</text>
<text x="1188" y="119" font-family="monospace" font-size="10" fill="#6b7280">text</text>
<rect x="1061" y="126" width="288" height="22" fill="#00000008"/>
<line x1="1064" y1="126" x2="1346" y2="126" stroke="#f59e0b" stroke-width="0.4" opacity="0.4"/>
<rect x="1314" y="129" width="24" height="15" rx="3" fill="#8b5cf6" opacity="0.85"/>
<text x="1326" y="140" text-anchor="middle" font-family="monospace" font-size="9" font-weight="bold" fill="white">UK</text>
<text x="1068" y="141" font-family="monospace" font-size="11" font-weight="normal" fill="#1f2937">email</text>
<text x="1188" y="141" font-family="monospace" font-size="10" fill="#6b7280">text</text>
<line x1="1064" y1="148" x2="1346" y2="148" stroke="#f59e0b" stroke-width="0.4" opacity="0.4"/>
<rect x="1314" y="151" width="24" height="15" rx="3" fill="#8b5cf6" opacity="0.85"/>
<text x="1326" y="162" text-anchor="middle" font-family="monospace" font-size="9" font-weight="bold" fill="white">UK</text>
<text x="1068" y="163" font-family="monospace" font-size="11" font-weight="normal" fill="#1f2937">telegram_chat_id</text>
<text x="1188" y="163" font-family="monospace" font-size="10" fill="#6b7280">text</text>
<rect x="1061" y="170" width="288" height="22" fill="#00000008"/>
<line x1="1064" y1="170" x2="1346" y2="170" stroke="#f59e0b" stroke-width="0.4" opacity="0.4"/>
<text x="1068" y="185" font-family="monospace" font-size="11" font-weight="normal" fill="#1f2937">skills</text>
<text x="1188" y="185" font-family="monospace" font-size="10" fill="#6b7280">text[]</text>
<line x1="1064" y1="192" x2="1346" y2="192" stroke="#f59e0b" stroke-width="0.4" opacity="0.4"/>
<text x="1068" y="207" font-family="monospace" font-size="11" font-weight="normal" fill="#1f2937">is_available</text>
<text x="1188" y="207" font-family="monospace" font-size="10" fill="#6b7280">boolean</text>
<rect x="1061" y="214" width="288" height="22" fill="#00000008"/>
<line x1="1064" y1="214" x2="1346" y2="214" stroke="#f59e0b" stroke-width="0.4" opacity="0.4"/>
<text x="1068" y="229" font-family="monospace" font-size="11" font-weight="normal" fill="#1f2937">max_concurrent</text>
<text x="1188" y="229" font-family="monospace" font-size="10" fill="#6b7280">integer</text>
<line x1="1064" y1="236" x2="1346" y2="236" stroke="#f59e0b" stroke-width="0.4" opacity="0.4"/>
<text x="1068" y="251" font-family="monospace" font-size="11" font-weight="normal" fill="#1f2937">current_load</text>
<text x="1188" y="251" font-family="monospace" font-size="10" fill="#6b7280">integer</text>
<rect x="1061" y="258" width="288" height="22" fill="#00000008"/>
<line x1="1064" y1="258" x2="1346" y2="258" stroke="#f59e0b" stroke-width="0.4" opacity="0.4"/>
<text x="1068" y="273" font-family="monospace" font-size="11" font-weight="normal" fill="#1f2937">password_hash</text>
<text x="1188" y="273" font-family="monospace" font-size="10" fill="#6b7280">text</text>
<line x1="1064" y1="280" x2="1346" y2="280" stroke="#f59e0b" stroke-width="0.4" opacity="0.4"/>
<text x="1068" y="295" font-family="monospace" font-size="11" font-weight="normal" fill="#1f2937">role</text>
<text x="1188" y="295" font-family="monospace" font-size="10" fill="#6b7280">text</text>
<rect x="1061" y="302" width="288" height="22" fill="#00000008"/>
<line x1="1064" y1="302" x2="1346" y2="302" stroke="#f59e0b" stroke-width="0.4" opacity="0.4"/>
<text x="1068" y="317" font-family="monospace" font-size="11" font-weight="normal" fill="#1f2937">created_at</text>
<text x="1188" y="317" font-family="monospace" font-size="10" fill="#6b7280">timestamptz</text>
<line x1="1064" y1="324" x2="1346" y2="324" stroke="#f59e0b" stroke-width="0.4" opacity="0.4"/>
<text x="1068" y="339" font-family="monospace" font-size="11" font-weight="normal" fill="#1f2937">updated_at</text>
<text x="1188" y="339" font-family="monospace" font-size="10" fill="#6b7280">timestamptz</text>
<rect x="1064" y="464" width="290" height="318" rx="6" fill="#00000022"/>
<rect x="1060" y="460" width="290" height="318" rx="6" fill="#fffbeb" stroke="#f59e0b" stroke-width="1.5"/>
<rect x="1060" y="460" width="290" height="32" rx="6" fill="#92400e"/>
<rect x="1060" y="486" width="290" height="6" fill="#92400e"/>
<text x="1205" y="483" text-anchor="middle" font-family="monospace" font-size="13" font-weight="bold" fill="#ffffff">escalations</text>
<line x1="1060" y1="492" x2="1350" y2="492" stroke="#f59e0b" stroke-width="1"/>
<rect x="1061" y="492" width="288" height="22" fill="#00000008"/>
<rect x="1314" y="495" width="24" height="15" rx="3" fill="#f59e0b" opacity="0.85"/>
<text x="1326" y="506" text-anchor="middle" font-family="monospace" font-size="9" font-weight="bold" fill="white">PK</text>
<text x="1068" y="507" font-family="monospace" font-size="11" font-weight="bold" fill="#1f2937">id</text>
<text x="1188" y="507" font-family="monospace" font-size="10" fill="#6b7280">uuid</text>
<line x1="1064" y1="514" x2="1346" y2="514" stroke="#f59e0b" stroke-width="0.4" opacity="0.4"/>
<text x="1068" y="529" font-family="monospace" font-size="11" font-weight="normal" fill="#1f2937">session_id</text>
<text x="1188" y="529" font-family="monospace" font-size="10" fill="#6b7280">text</text>
<rect x="1061" y="536" width="288" height="22" fill="#00000008"/>
<line x1="1064" y1="536" x2="1346" y2="536" stroke="#f59e0b" stroke-width="0.4" opacity="0.4"/>
<rect x="1314" y="539" width="24" height="15" rx="3" fill="#ef4444" opacity="0.85"/>
<text x="1326" y="550" text-anchor="middle" font-family="monospace" font-size="9" font-weight="bold" fill="white">FK</text>
<text x="1068" y="551" font-family="monospace" font-size="11" font-weight="bold" fill="#1f2937">staff_id</text>
<text x="1188" y="551" font-family="monospace" font-size="10" fill="#6b7280">uuid</text>
<line x1="1064" y1="558" x2="1346" y2="558" stroke="#f59e0b" stroke-width="0.4" opacity="0.4"/>
<text x="1068" y="573" font-family="monospace" font-size="11" font-weight="normal" fill="#1f2937">reason</text>
<text x="1188" y="573" font-family="monospace" font-size="10" fill="#6b7280">text</text>
<rect x="1061" y="580" width="288" height="22" fill="#00000008"/>
<line x1="1064" y1="580" x2="1346" y2="580" stroke="#f59e0b" stroke-width="0.4" opacity="0.4"/>
<text x="1068" y="595" font-family="monospace" font-size="11" font-weight="normal" fill="#1f2937">status</text>
<text x="1188" y="595" font-family="monospace" font-size="10" fill="#6b7280">text</text>
<line x1="1064" y1="602" x2="1346" y2="602" stroke="#f59e0b" stroke-width="0.4" opacity="0.4"/>
<text x="1068" y="617" font-family="monospace" font-size="11" font-weight="normal" fill="#1f2937">skill_required</text>
<text x="1188" y="617" font-family="monospace" font-size="10" fill="#6b7280">text</text>
<rect x="1061" y="624" width="288" height="22" fill="#00000008"/>
<line x1="1064" y1="624" x2="1346" y2="624" stroke="#f59e0b" stroke-width="0.4" opacity="0.4"/>
<text x="1068" y="639" font-family="monospace" font-size="11" font-weight="normal" fill="#1f2937">priority</text>
<text x="1188" y="639" font-family="monospace" font-size="10" fill="#6b7280">integer</text>
<line x1="1064" y1="646" x2="1346" y2="646" stroke="#f59e0b" stroke-width="0.4" opacity="0.4"/>
<text x="1068" y="661" font-family="monospace" font-size="11" font-weight="normal" fill="#1f2937">customer_summary</text>
<text x="1188" y="661" font-family="monospace" font-size="10" fill="#6b7280">text</text>
<rect x="1061" y="668" width="288" height="22" fill="#00000008"/>
<line x1="1064" y1="668" x2="1346" y2="668" stroke="#f59e0b" stroke-width="0.4" opacity="0.4"/>
<text x="1068" y="683" font-family="monospace" font-size="11" font-weight="normal" fill="#1f2937">staff_notes</text>
<text x="1188" y="683" font-family="monospace" font-size="10" fill="#6b7280">text</text>
<line x1="1064" y1="690" x2="1346" y2="690" stroke="#f59e0b" stroke-width="0.4" opacity="0.4"/>
<text x="1068" y="705" font-family="monospace" font-size="11" font-weight="normal" fill="#1f2937">assigned_at</text>
<text x="1188" y="705" font-family="monospace" font-size="10" fill="#6b7280">timestamptz</text>
<rect x="1061" y="712" width="288" height="22" fill="#00000008"/>
<line x1="1064" y1="712" x2="1346" y2="712" stroke="#f59e0b" stroke-width="0.4" opacity="0.4"/>
<text x="1068" y="727" font-family="monospace" font-size="11" font-weight="normal" fill="#1f2937">resolved_at</text>
<text x="1188" y="727" font-family="monospace" font-size="10" fill="#6b7280">timestamptz</text>
<line x1="1064" y1="734" x2="1346" y2="734" stroke="#f59e0b" stroke-width="0.4" opacity="0.4"/>
<text x="1068" y="749" font-family="monospace" font-size="11" font-weight="normal" fill="#1f2937">created_at</text>
<text x="1188" y="749" font-family="monospace" font-size="10" fill="#6b7280">timestamptz</text>
<rect x="1061" y="756" width="288" height="22" fill="#00000008"/>
<line x1="1064" y1="756" x2="1346" y2="756" stroke="#f59e0b" stroke-width="0.4" opacity="0.4"/>
<text x="1068" y="771" font-family="monospace" font-size="11" font-weight="normal" fill="#1f2937">updated_at</text>
<text x="1188" y="771" font-family="monospace" font-size="10" fill="#6b7280">timestamptz</text>
<rect x="24" y="374" width="290" height="208" rx="6" fill="#00000022"/>
<rect x="20" y="370" width="290" height="208" rx="6" fill="#ecfdf5" stroke="#10b981" stroke-width="1.5"/>
<rect x="20" y="370" width="290" height="32" rx="6" fill="#065f46"/>
<rect x="20" y="396" width="290" height="6" fill="#065f46"/>
<text x="165" y="393" text-anchor="middle" font-family="monospace" font-size="13" font-weight="bold" fill="#ffffff">rag_documents</text>
<line x1="20" y1="402" x2="310" y2="402" stroke="#10b981" stroke-width="1"/>
<rect x="21" y="402" width="288" height="22" fill="#00000008"/>
<rect x="274" y="405" width="24" height="15" rx="3" fill="#f59e0b" opacity="0.85"/>
<text x="286" y="416" text-anchor="middle" font-family="monospace" font-size="9" font-weight="bold" fill="white">PK</text>
<text x="28" y="417" font-family="monospace" font-size="11" font-weight="bold" fill="#1f2937">id</text>
<text x="148" y="417" font-family="monospace" font-size="10" fill="#6b7280">uuid</text>
<line x1="24" y1="424" x2="306" y2="424" stroke="#10b981" stroke-width="0.4" opacity="0.4"/>
<text x="28" y="439" font-family="monospace" font-size="11" font-weight="normal" fill="#1f2937">title</text>
<text x="148" y="439" font-family="monospace" font-size="10" fill="#6b7280">text</text>
<rect x="21" y="446" width="288" height="22" fill="#00000008"/>
<line x1="24" y1="446" x2="306" y2="446" stroke="#10b981" stroke-width="0.4" opacity="0.4"/>
<text x="28" y="461" font-family="monospace" font-size="11" font-weight="normal" fill="#1f2937">content</text>
<text x="148" y="461" font-family="monospace" font-size="10" fill="#6b7280">text</text>
<line x1="24" y1="468" x2="306" y2="468" stroke="#10b981" stroke-width="0.4" opacity="0.4"/>
<text x="28" y="483" font-family="monospace" font-size="11" font-weight="normal" fill="#1f2937">doc_type</text>
<text x="148" y="483" font-family="monospace" font-size="10" fill="#6b7280">text</text>
<rect x="21" y="490" width="288" height="22" fill="#00000008"/>
<line x1="24" y1="490" x2="306" y2="490" stroke="#10b981" stroke-width="0.4" opacity="0.4"/>
<text x="28" y="505" font-family="monospace" font-size="11" font-weight="normal" fill="#1f2937">file_path</text>
<text x="148" y="505" font-family="monospace" font-size="10" fill="#6b7280">text</text>
<line x1="24" y1="512" x2="306" y2="512" stroke="#10b981" stroke-width="0.4" opacity="0.4"/>
<text x="28" y="527" font-family="monospace" font-size="11" font-weight="normal" fill="#1f2937">metadata</text>
<text x="148" y="527" font-family="monospace" font-size="10" fill="#6b7280">jsonb</text>
<rect x="21" y="534" width="288" height="22" fill="#00000008"/>
<line x1="24" y1="534" x2="306" y2="534" stroke="#10b981" stroke-width="0.4" opacity="0.4"/>
<text x="28" y="549" font-family="monospace" font-size="11" font-weight="normal" fill="#1f2937">created_at</text>
<text x="148" y="549" font-family="monospace" font-size="10" fill="#6b7280">timestamptz</text>
<line x1="24" y1="556" x2="306" y2="556" stroke="#10b981" stroke-width="0.4" opacity="0.4"/>
<text x="28" y="571" font-family="monospace" font-size="11" font-weight="normal" fill="#1f2937">updated_at</text>
<text x="148" y="571" font-family="monospace" font-size="10" fill="#6b7280">timestamptz</text>
<rect x="344" y="454" width="290" height="164" rx="6" fill="#00000022"/>
<rect x="340" y="450" width="290" height="164" rx="6" fill="#ecfdf5" stroke="#10b981" stroke-width="1.5"/>
<rect x="340" y="450" width="290" height="32" rx="6" fill="#065f46"/>
<rect x="340" y="476" width="290" height="6" fill="#065f46"/>
<text x="485" y="473" text-anchor="middle" font-family="monospace" font-size="13" font-weight="bold" fill="#ffffff">product_embeddings</text>
<line x1="340" y1="482" x2="630" y2="482" stroke="#10b981" stroke-width="1"/>
<rect x="341" y="482" width="288" height="22" fill="#00000008"/>
<rect x="594" y="485" width="24" height="15" rx="3" fill="#f59e0b" opacity="0.85"/>
<text x="606" y="496" text-anchor="middle" font-family="monospace" font-size="9" font-weight="bold" fill="white">PK</text>
<text x="348" y="497" font-family="monospace" font-size="11" font-weight="bold" fill="#1f2937">id</text>
<text x="468" y="497" font-family="monospace" font-size="10" fill="#6b7280">uuid</text>
<line x1="344" y1="504" x2="626" y2="504" stroke="#10b981" stroke-width="0.4" opacity="0.4"/>
<rect x="566" y="507" width="24" height="15" rx="3" fill="#ef4444" opacity="0.85"/>
<text x="578" y="518" text-anchor="middle" font-family="monospace" font-size="9" font-weight="bold" fill="white">FK</text>
<rect x="594" y="507" width="24" height="15" rx="3" fill="#ef4444" opacity="0.85"/>
<text x="606" y="518" text-anchor="middle" font-family="monospace" font-size="9" font-weight="bold" fill="white">UK</text>
<text x="348" y="519" font-family="monospace" font-size="11" font-weight="bold" fill="#1f2937">product_id</text>
<text x="468" y="519" font-family="monospace" font-size="10" fill="#6b7280">uuid</text>
<rect x="341" y="526" width="288" height="22" fill="#00000008"/>
<line x1="344" y1="526" x2="626" y2="526" stroke="#10b981" stroke-width="0.4" opacity="0.4"/>
<text x="348" y="541" font-family="monospace" font-size="11" font-weight="normal" fill="#1f2937">content</text>
<text x="468" y="541" font-family="monospace" font-size="10" fill="#6b7280">text</text>
<line x1="344" y1="548" x2="626" y2="548" stroke="#10b981" stroke-width="0.4" opacity="0.4"/>
<text x="348" y="563" font-family="monospace" font-size="11" font-weight="normal" fill="#1f2937">embedding</text>
<text x="468" y="563" font-family="monospace" font-size="10" fill="#6b7280">vector(768)</text>
<rect x="341" y="570" width="288" height="22" fill="#00000008"/>
<line x1="344" y1="570" x2="626" y2="570" stroke="#10b981" stroke-width="0.4" opacity="0.4"/>
<text x="348" y="585" font-family="monospace" font-size="11" font-weight="normal" fill="#1f2937">created_at</text>
<text x="468" y="585" font-family="monospace" font-size="10" fill="#6b7280">timestamptz</text>
<line x1="344" y1="592" x2="626" y2="592" stroke="#10b981" stroke-width="0.4" opacity="0.4"/>
<text x="348" y="607" font-family="monospace" font-size="11" font-weight="normal" fill="#1f2937">updated_at</text>
<text x="468" y="607" font-family="monospace" font-size="10" fill="#6b7280">timestamptz</text>
<rect x="664" y="434" width="290" height="230" rx="6" fill="#00000022"/>
<rect x="660" y="430" width="290" height="230" rx="6" fill="#eff6ff" stroke="#3b82f6" stroke-width="1.5"/>
<rect x="660" y="430" width="290" height="32" rx="6" fill="#1d4ed8"/>
<rect x="660" y="456" width="290" height="6" fill="#1d4ed8"/>
<text x="805" y="453" text-anchor="middle" font-family="monospace" font-size="13" font-weight="bold" fill="#ffffff">order_items</text>
<line x1="660" y1="462" x2="950" y2="462" stroke="#3b82f6" stroke-width="1"/>
<rect x="661" y="462" width="288" height="22" fill="#00000008"/>
<rect x="914" y="465" width="24" height="15" rx="3" fill="#f59e0b" opacity="0.85"/>
<text x="926" y="476" text-anchor="middle" font-family="monospace" font-size="9" font-weight="bold" fill="white">PK</text>
<text x="668" y="477" font-family="monospace" font-size="11" font-weight="bold" fill="#1f2937">id</text>
<text x="788" y="477" font-family="monospace" font-size="10" fill="#6b7280">uuid</text>
<line x1="664" y1="484" x2="946" y2="484" stroke="#3b82f6" stroke-width="0.4" opacity="0.4"/>
<rect x="914" y="487" width="24" height="15" rx="3" fill="#ef4444" opacity="0.85"/>
<text x="926" y="498" text-anchor="middle" font-family="monospace" font-size="9" font-weight="bold" fill="white">FK</text>
<text x="668" y="499" font-family="monospace" font-size="11" font-weight="bold" fill="#1f2937">order_id</text>
<text x="788" y="499" font-family="monospace" font-size="10" fill="#6b7280">uuid</text>
<rect x="661" y="506" width="288" height="22" fill="#00000008"/>
<line x1="664" y1="506" x2="946" y2="506" stroke="#3b82f6" stroke-width="0.4" opacity="0.4"/>
<rect x="914" y="509" width="24" height="15" rx="3" fill="#ef4444" opacity="0.85"/>
<text x="926" y="520" text-anchor="middle" font-family="monospace" font-size="9" font-weight="bold" fill="white">FK</text>
<text x="668" y="521" font-family="monospace" font-size="11" font-weight="bold" fill="#1f2937">product_id</text>
<text x="788" y="521" font-family="monospace" font-size="10" fill="#6b7280">uuid</text>
<line x1="664" y1="528" x2="946" y2="528" stroke="#3b82f6" stroke-width="0.4" opacity="0.4"/>
<text x="668" y="543" font-family="monospace" font-size="11" font-weight="normal" fill="#1f2937">sku</text>
<text x="788" y="543" font-family="monospace" font-size="10" fill="#6b7280">text</text>
<rect x="661" y="550" width="288" height="22" fill="#00000008"/>
<line x1="664" y1="550" x2="946" y2="550" stroke="#3b82f6" stroke-width="0.4" opacity="0.4"/>
<text x="668" y="565" font-family="monospace" font-size="11" font-weight="normal" fill="#1f2937">product_name</text>
<text x="788" y="565" font-family="monospace" font-size="10" fill="#6b7280">text</text>
<line x1="664" y1="572" x2="946" y2="572" stroke="#3b82f6" stroke-width="0.4" opacity="0.4"/>
<text x="668" y="587" font-family="monospace" font-size="11" font-weight="normal" fill="#1f2937">quantity</text>
<text x="788" y="587" font-family="monospace" font-size="10" fill="#6b7280">integer</text>
<rect x="661" y="594" width="288" height="22" fill="#00000008"/>
<line x1="664" y1="594" x2="946" y2="594" stroke="#3b82f6" stroke-width="0.4" opacity="0.4"/>
<text x="668" y="609" font-family="monospace" font-size="11" font-weight="normal" fill="#1f2937">unit_price</text>
<text x="788" y="609" font-family="monospace" font-size="10" fill="#6b7280">numeric</text>
<line x1="664" y1="616" x2="946" y2="616" stroke="#3b82f6" stroke-width="0.4" opacity="0.4"/>
<text x="668" y="631" font-family="monospace" font-size="11" font-weight="normal" fill="#1f2937">subtotal</text>
<text x="788" y="631" font-family="monospace" font-size="10" fill="#6b7280">numeric</text>
<rect x="661" y="638" width="288" height="22" fill="#00000008"/>
<line x1="664" y1="638" x2="946" y2="638" stroke="#3b82f6" stroke-width="0.4" opacity="0.4"/>
<text x="668" y="653" font-family="monospace" font-size="11" font-weight="normal" fill="#1f2937">created_at</text>
<text x="788" y="653" font-family="monospace" font-size="10" fill="#6b7280">timestamptz</text>
<rect x="344" y="754" width="290" height="186" rx="6" fill="#00000022"/>
<rect x="340" y="750" width="290" height="186" rx="6" fill="#ecfdf5" stroke="#10b981" stroke-width="1.5"/>
<rect x="340" y="750" width="290" height="32" rx="6" fill="#065f46"/>
<rect x="340" y="776" width="290" height="6" fill="#065f46"/>
<text x="485" y="773" text-anchor="middle" font-family="monospace" font-size="13" font-weight="bold" fill="#ffffff">rag_chunks</text>
<line x1="340" y1="782" x2="630" y2="782" stroke="#10b981" stroke-width="1"/>
<rect x="341" y="782" width="288" height="22" fill="#00000008"/>
<rect x="594" y="785" width="24" height="15" rx="3" fill="#f59e0b" opacity="0.85"/>
<text x="606" y="796" text-anchor="middle" font-family="monospace" font-size="9" font-weight="bold" fill="white">PK</text>
<text x="348" y="797" font-family="monospace" font-size="11" font-weight="bold" fill="#1f2937">id</text>
<text x="468" y="797" font-family="monospace" font-size="10" fill="#6b7280">uuid</text>
<line x1="344" y1="804" x2="626" y2="804" stroke="#10b981" stroke-width="0.4" opacity="0.4"/>
<rect x="594" y="807" width="24" height="15" rx="3" fill="#ef4444" opacity="0.85"/>
<text x="606" y="818" text-anchor="middle" font-family="monospace" font-size="9" font-weight="bold" fill="white">FK</text>
<text x="348" y="819" font-family="monospace" font-size="11" font-weight="bold" fill="#1f2937">document_id</text>
<text x="468" y="819" font-family="monospace" font-size="10" fill="#6b7280">uuid</text>
<rect x="341" y="826" width="288" height="22" fill="#00000008"/>
<line x1="344" y1="826" x2="626" y2="826" stroke="#10b981" stroke-width="0.4" opacity="0.4"/>
<text x="348" y="841" font-family="monospace" font-size="11" font-weight="normal" fill="#1f2937">chunk_index</text>
<text x="468" y="841" font-family="monospace" font-size="10" fill="#6b7280">integer</text>
<line x1="344" y1="848" x2="626" y2="848" stroke="#10b981" stroke-width="0.4" opacity="0.4"/>
<text x="348" y="863" font-family="monospace" font-size="11" font-weight="normal" fill="#1f2937">content</text>
<text x="468" y="863" font-family="monospace" font-size="10" fill="#6b7280">text</text>
<rect x="341" y="870" width="288" height="22" fill="#00000008"/>
<line x1="344" y1="870" x2="626" y2="870" stroke="#10b981" stroke-width="0.4" opacity="0.4"/>
<text x="348" y="885" font-family="monospace" font-size="11" font-weight="normal" fill="#1f2937">embedding</text>
<text x="468" y="885" font-family="monospace" font-size="10" fill="#6b7280">vector(768)</text>
<line x1="344" y1="892" x2="626" y2="892" stroke="#10b981" stroke-width="0.4" opacity="0.4"/>
<text x="348" y="907" font-family="monospace" font-size="11" font-weight="normal" fill="#1f2937">metadata</text>
<text x="468" y="907" font-family="monospace" font-size="10" fill="#6b7280">jsonb</text>
<rect x="341" y="914" width="288" height="22" fill="#00000008"/>
<line x1="344" y1="914" x2="626" y2="914" stroke="#10b981" stroke-width="0.4" opacity="0.4"/>
<text x="348" y="929" font-family="monospace" font-size="11" font-weight="normal" fill="#1f2937">created_at</text>
<text x="468" y="929" font-family="monospace" font-size="10" fill="#6b7280">timestamptz</text>
<rect x="664" y="764" width="290" height="164" rx="6" fill="#00000022"/>
<rect x="660" y="760" width="290" height="164" rx="6" fill="#f5f3ff" stroke="#8b5cf6" stroke-width="1.5"/>
<rect x="660" y="760" width="290" height="32" rx="6" fill="#5b21b6"/>
<rect x="660" y="786" width="290" height="6" fill="#5b21b6"/>
<text x="805" y="783" text-anchor="middle" font-family="monospace" font-size="13" font-weight="bold" fill="#ffffff">conversations</text>
<line x1="660" y1="792" x2="950" y2="792" stroke="#8b5cf6" stroke-width="1"/>
<rect x="661" y="792" width="288" height="22" fill="#00000008"/>
<rect x="914" y="795" width="24" height="15" rx="3" fill="#f59e0b" opacity="0.85"/>
<text x="926" y="806" text-anchor="middle" font-family="monospace" font-size="9" font-weight="bold" fill="white">PK</text>
<text x="668" y="807" font-family="monospace" font-size="11" font-weight="bold" fill="#1f2937">id</text>
<text x="788" y="807" font-family="monospace" font-size="10" fill="#6b7280">uuid</text>
<line x1="664" y1="814" x2="946" y2="814" stroke="#8b5cf6" stroke-width="0.4" opacity="0.4"/>
<text x="668" y="829" font-family="monospace" font-size="11" font-weight="normal" fill="#1f2937">session_id</text>
<text x="788" y="829" font-family="monospace" font-size="10" fill="#6b7280">text</text>
<rect x="661" y="836" width="288" height="22" fill="#00000008"/>
<line x1="664" y1="836" x2="946" y2="836" stroke="#8b5cf6" stroke-width="0.4" opacity="0.4"/>
<text x="668" y="851" font-family="monospace" font-size="11" font-weight="normal" fill="#1f2937">role</text>
<text x="788" y="851" font-family="monospace" font-size="10" fill="#6b7280">text</text>
<line x1="664" y1="858" x2="946" y2="858" stroke="#8b5cf6" stroke-width="0.4" opacity="0.4"/>
<text x="668" y="873" font-family="monospace" font-size="11" font-weight="normal" fill="#1f2937">content</text>
<text x="788" y="873" font-family="monospace" font-size="10" fill="#6b7280">text</text>
<rect x="661" y="880" width="288" height="22" fill="#00000008"/>
<line x1="664" y1="880" x2="946" y2="880" stroke="#8b5cf6" stroke-width="0.4" opacity="0.4"/>
<text x="668" y="895" font-family="monospace" font-size="11" font-weight="normal" fill="#1f2937">metadata</text>
<text x="788" y="895" font-family="monospace" font-size="10" fill="#6b7280">jsonb</text>
<line x1="664" y1="902" x2="946" y2="902" stroke="#8b5cf6" stroke-width="0.4" opacity="0.4"/>
<text x="668" y="917" font-family="monospace" font-size="11" font-weight="normal" fill="#1f2937">created_at</text>
<text x="788" y="917" font-family="monospace" font-size="10" fill="#6b7280">timestamptz</text>
<text x="20" y="946" font-family="sans-serif" font-size="10" fill="#64748b">PK = Primary Key  |  FK = Foreign Key  |  UK = Unique</text>
</svg>